M48
; DRILL file {KiCad (5.1.5)-3} date 1/12/2021 11:35:33 AM
; FORMAT={-:-/ absolute / inch / decimal}
; #@! TF.CreationDate,2021-01-12T11:35:33+02:00
; #@! TF.GenerationSoftware,Kicad,Pcbnew,(5.1.5)-3
; #@! TF.FileFunction,Plated,1,2,PTH
FMAT,2
INCH
T1C0.0118
T2C0.0236
T3C0.0394
T4C0.1260
%
G90
G05
T1
X5.374Y-3.4055
X5.3937Y-3.5709
X5.3937Y-3.6024
X5.3976Y-3.1024
X5.4213Y-3.248
X5.4213Y-3.3465
X5.4528Y-3.3465
X5.4567Y-3.2205
X5.4685Y-3.8898
X5.4823Y-3.3465
X5.4843Y-3.1969
X5.5118Y-3.1732
X5.5118Y-3.3465
X5.5413Y-3.1496
X5.5413Y-3.3465
X5.5709Y-2.6772
X5.5709Y-3.6024
X5.5787Y-3.8898
X5.6004Y-3.4449
X5.624Y-3.5709
X5.6339Y-3.4528
X5.6693Y-2.6772
X5.7008Y-3.6299
X5.7087Y-3.4547
X5.7087Y-3.5138
X5.7244Y-3.811
X5.7244Y-3.8661
X5.7244Y-3.9921
X5.7283Y-3.6142
X5.7559Y-3.6299
X5.7717Y-2.7283
X5.7717Y-2.752
X5.7756Y-3.122
X5.7874Y-3.5236
X5.7874Y-2.9232
X5.7953Y-2.7283
X5.7953Y-2.752
X5.7972Y-4.0236
X5.8071Y-3.5531
X5.8169Y-3.3661
X5.8189Y-2.752
X5.8228Y-3.3386
X5.8268Y-2.9232
X5.8268Y-3.5866
X5.8366Y-3.7598
X5.8465Y-2.9035
X5.8465Y-3.6122
X5.8563Y-3.0709
X5.8661Y-3.6417
X5.876Y-2.9921
X5.876Y-3.9862
X5.8846Y-2.7449
X5.8858Y-3.6713
X5.9055Y-2.7657
X5.9055Y-2.9035
X5.9055Y-3.7008
X5.9311Y-3.7303
X5.9449Y-3.7598
X5.9744Y-3.1791
X5.9764Y-2.7461
X5.9764Y-2.8071
X5.9843Y-2.9232
X5.9961Y-3.3898
X6.0Y-3.8583
X6.0039Y-3.185
X6.0039Y-3.5335
X6.0039Y-3.563
X6.0039Y-3.5984
X6.0039Y-3.6319
X6.0039Y-3.6614
X6.0039Y-3.6909
X6.0039Y-3.7205
X6.0039Y-3.75
X6.0039Y-3.7795
X6.0039Y-3.9843
X6.0236Y-3.3957
X6.0236Y-4.0236
X6.0276Y-3.2795
X6.0335Y-3.189
X6.0335Y-3.3071
X6.0433Y-2.9232
X6.0591Y-2.7283
X6.063Y-2.8465
X6.0709Y-3.4528
X6.0728Y-2.9921
X6.0748Y-4.2559
X6.0748Y-4.2835
X6.0827Y-2.7047
X6.0827Y-2.7283
X6.0866Y-3.1457
X6.1063Y-2.7047
X6.1063Y-2.7283
X6.1496Y-3.3071
X6.1496Y-3.3307
X6.1614Y-2.9232
X6.2047Y-3.1496
X6.2087Y-2.8346
X6.2402Y-3.8622
X6.2795Y-2.7283
X6.2795Y-2.752
X6.2835Y-2.685
X6.3189Y-3.8425
X6.3189Y-4.0354
X6.3465Y-3.5669
X6.3524Y-3.2677
X6.3524Y-3.3268
X6.3524Y-3.3858
X6.3524Y-3.4449
X6.3524Y-3.5039
X6.3681Y-3.0512
X6.378Y-2.8858
X6.4055Y-2.8465
X6.4055Y-2.9016
X6.4764Y-2.8465
X6.4803Y-2.878
X6.4961Y-2.9055
X6.5039Y-3.8819
T3
X5.2264Y-2.8543
X5.2264Y-2.9543
X5.2264Y-3.0543
X5.2264Y-3.1543
X5.2264Y-3.2543
X5.2264Y-3.3543
X5.2264Y-3.4543
X5.2264Y-3.5543
X5.2264Y-3.6543
X5.2264Y-3.7543
X5.2264Y-3.8543
X5.2264Y-3.9543
X5.5217Y-4.152
X5.5217Y-4.252
X6.624Y-2.8543
X6.624Y-2.9543
X6.624Y-3.0543
X6.624Y-3.1543
X6.624Y-3.2543
X6.624Y-3.3543
X6.624Y-3.4543
X6.624Y-3.5543
X6.624Y-3.6543
X6.624Y-3.7543
X6.624Y-3.8543
X6.624Y-3.9543
T4
X5.2756Y-4.252
X6.5748Y-4.252
X6.5748Y-2.5591
X5.2756Y-2.5591
T2
G00X5.7551Y-2.4921
M15
G01X5.7551Y-2.4685
M16
G05
G00X5.7551Y-2.6567
M15
G01X5.7551Y-2.6331
M16
G05
G00X6.0953Y-2.4921
M15
G01X6.0953Y-2.4685
M16
G05
G00X6.0953Y-2.6567
M15
G01X6.0953Y-2.6331
M16
G05
T0
M30
